<svg xmlns="http://www.w3.org/2000/svg" xmlns:xlink="http://www.w3.org/1999/xlink" width="800" zoomAndPan="magnify" viewBox="0 0 600 599.999999" height="800" preserveAspectRatio="xMidYMid meet" version="1.0"><defs><clipPath id="79278c8fc2"><path d="M 3.441406 175 L 198 175 L 198 429 L 3.441406 429 Z M 3.441406 175 " clip-rule="nonzero"/></clipPath><clipPath id="30740314e8"><path d="M 402 175 L 596.691406 175 L 596.691406 429 L 402 429 Z M 402 175 " clip-rule="nonzero"/></clipPath><clipPath id="d27be418db"><path d="M 264.410156 393.261719 L 335.582031 393.261719 L 335.582031 463.886719 L 264.410156 463.886719 Z M 264.410156 393.261719 " clip-rule="nonzero"/></clipPath></defs><rect x="-60" width="720" fill="#ffffff" y="-60" height="719.999999" fill-opacity="1"/><rect x="-60" width="720" fill="#ffffff" y="-60" height="719.999999" fill-opacity="1"/><path fill="#d6d6d6" d="M 210.246094 259.082031 C 237.574219 244.59375 268.191406 236.90625 299.996094 236.90625 C 331.800781 236.90625 362.421875 244.59375 389.746094 259.082031 L 442.0625 168.472656 C 433.4375 163.769531 424.5625 159.476562 415.445312 155.621094 C 378.851562 140.144531 340.007812 132.296875 299.996094 132.296875 C 259.984375 132.296875 221.140625 140.144531 184.550781 155.621094 C 175.429688 159.476562 166.558594 163.769531 157.933594 168.472656 L 210.246094 259.082031 " fill-opacity="1" fill-rule="nonzero"/><g clip-path="url(#79278c8fc2)"><path fill="#f0f0f0" d="M 197.855469 266.261719 L 145.535156 175.636719 C 125.558594 187.832031 107.074219 202.382812 90.300781 219.15625 C 63.082031 246.375 41.707031 278.082031 26.769531 313.402344 C 11.292969 349.996094 3.441406 388.839844 3.441406 428.851562 L 108.046875 428.851562 C 108.046875 377.582031 128.015625 329.375 164.269531 293.125 C 174.570312 282.828125 185.832031 273.847656 197.855469 266.261719 " fill-opacity="1" fill-rule="nonzero"/></g><g clip-path="url(#30740314e8)"><path fill="#acacac" d="M 573.226562 313.402344 C 558.285156 278.082031 536.910156 246.375 509.695312 219.15625 C 492.917969 202.382812 474.4375 187.832031 454.460938 175.636719 L 402.136719 266.261719 C 414.160156 273.847656 425.425781 282.828125 435.726562 293.125 C 471.980469 329.375 491.941406 377.582031 491.941406 428.851562 L 596.550781 428.851562 C 596.550781 388.839844 588.703125 349.996094 573.226562 313.402344 " fill-opacity="1" fill-rule="nonzero"/></g><path fill="#8f8f8f" d="M 426.5625 325.46875 L 319.527344 382.328125 C 334.886719 388.785156 346.371094 402.628906 349.550781 419.414062 L 427.382812 326.480469 C 427.847656 325.917969 427.207031 325.128906 426.5625 325.46875 " fill-opacity="1" fill-rule="nonzero"/><g clip-path="url(#d27be418db)"><path fill="#8f8f8f" d="M 299.996094 393.816406 C 280.648438 393.816406 264.960938 409.5 264.960938 428.851562 C 264.960938 448.203125 280.648438 463.886719 299.996094 463.886719 C 319.347656 463.886719 335.03125 448.203125 335.03125 428.851562 C 335.03125 409.5 319.347656 393.816406 299.996094 393.816406 " fill-opacity="1" fill-rule="nonzero"/></g></svg>